<svg width="370" height="70" viewBox="0 0 370 70" fill="none" xmlns="http://www.w3.org/2000/svg">
<path d="M22.8099 59.9893H36.0946L60.9694 42.4592V13.3783L44.4317 0L15.3689 23.4031V33.6231L21.8749 38.8751L29.1796 32.9666L25.5954 30.11V26.1178L44.8018 10.6636L51.4247 16.0043V39.3364L22.8099 59.9893Z" fill="url(#paint0_linear_938_100)"/>
<path d="M38.1205 0H24.8358L0 17.5302V46.6111L16.5377 59.9893L45.5615 36.5507V26.3485L39.0555 21.0965L31.7898 27.005L35.335 29.8616V33.8538L16.1287 49.308L9.54474 44.0028V20.6175L38.1205 0Z" fill="url(#paint1_linear_938_100)"/>
<path d="M103.189 33.2772C102.94 32.5572 102.585 31.9321 102.124 31.4015C101.804 31.0225 101.289 30.5868 100.579 30.094C99.7975 29.6772 99.105 29.3551 98.5012 29.1277C98.9274 28.8624 99.3891 28.5593 99.8863 28.2182C100.384 27.7635 100.756 27.3277 101.005 26.9108C101.325 26.4561 101.591 25.9066 101.804 25.2624C102.017 24.5803 102.124 23.8414 102.124 23.0455C102.124 20.9235 101.378 19.2371 99.8863 17.9866C98.3947 16.7361 96.3703 16.1108 93.8133 16.1108H83.9581V20.3172H93.2807C94.6302 20.3172 95.7313 20.6203 96.5836 21.2266C97.3294 21.833 97.7023 22.7046 97.7023 23.8414C97.7023 25.1299 97.2761 26.0583 96.4238 26.6267C95.5359 27.2331 94.3817 27.5362 92.9611 27.5362H83.9582V31.5152H93.9198C95.6245 31.5152 96.9207 31.8373 97.8086 32.4815C98.6609 33.1636 99.0871 34.0731 99.0871 35.21C99.0871 36.4226 98.6609 37.351 97.8086 37.9952C96.9207 38.6394 95.731 38.9615 94.2394 38.9615H83.958V43.1679H94.1862C95.5713 43.1679 96.8498 42.9974 98.0218 42.6563C99.2293 42.2773 100.206 41.8036 100.952 41.2352C101.698 40.6669 102.337 39.8899 102.87 38.9047C103.296 37.9952 103.509 36.9341 103.509 35.7215C103.509 34.7741 103.402 33.9593 103.189 33.2772ZM129.24 34.9827C128.565 36.7259 127.641 38.1659 126.469 39.3027C125.262 40.5153 123.841 41.4628 122.208 42.1449C120.574 42.827 118.745 43.1681 116.721 43.1681H110.807V38.8481H116.667C118.017 38.8481 119.242 38.6207 120.343 38.1659C121.409 37.7112 122.332 37.067 123.113 36.2333C123.895 35.3995 124.498 34.4143 124.924 33.2774C125.351 32.1406 125.564 30.89 125.564 29.5258C125.564 28.1995 125.351 26.9679 124.924 25.831C124.498 24.6563 123.895 23.69 123.113 22.932C122.403 22.1362 121.48 21.4921 120.343 20.9993C119.207 20.5446 117.981 20.3172 116.667 20.3172H110.807V15.9972H116.721C118.603 15.9972 120.414 16.3572 122.154 17.0772C123.788 17.7214 125.226 18.6877 126.469 19.9762C127.677 21.151 128.6 22.591 129.24 24.2963C129.914 26.0395 130.252 27.8205 130.252 29.6395C130.252 31.6101 129.914 33.3911 129.24 34.9827ZM171.643 20.5445H179.688V16.1107H159.125V20.5445H171.643ZM167.169 24.9784H171.644V43.168H167.169V24.9784ZM187.199 16.1106H206.164V20.4306H187.199V16.1106ZM187.199 38.8478H206.11V43.1678H187.199V38.8478ZM187.199 27.3656H204.299V31.6288H187.199V27.3656ZM232.107 43.1678H236.582V23.2159L232.107 30.2076V43.1678ZM236.582 16.1106H231.788L223.957 29.071L216.179 16.1106H211.385V43.168H215.86V23.9554L223.851 36.7449H224.01L230.989 25.7176C231.024 25.566 232.889 22.3631 236.582 16.1106ZM260.395 21.4539C259.933 20.3928 259.294 19.4454 258.477 18.6118C257.624 17.8159 256.612 17.1907 255.44 16.736C254.162 16.3192 252.812 16.1107 251.392 16.1107H241.43V20.3739H251.019C252.618 20.3739 253.949 20.7908 255.015 21.6245C256.009 22.4203 256.506 23.6329 256.506 25.2624C256.506 26.7404 256.027 27.9341 255.068 28.8435C254.038 29.7151 252.689 30.1509 251.019 30.1509H241.43V43.1682H245.852V34.4713H250.859C252.173 34.4713 253.505 34.2629 254.855 33.8461C256.098 33.4292 257.163 32.8419 258.051 32.084C258.974 31.3262 259.702 30.3598 260.235 29.185C260.768 28.0482 261.034 26.7218 261.034 25.206C261.034 23.766 260.821 22.5151 260.395 21.4539ZM269.664 16.1106H274.032V38.8476H287.35V43.1677H269.663L269.664 16.1106ZM313.08 43.1678H317.875L308.605 16.0536H303.757L309.138 32.254L313.08 43.1678ZM293.476 43.1678H298.164L303.704 28.7296L301.414 22.2495L293.476 43.1678ZM335.294 20.5445H343.338V16.1107H322.776V20.5445H335.294ZM330.82 24.9784H335.295V43.168H330.82V24.9784ZM350.85 16.1106H369.815V20.4306H350.85V16.1106ZM350.85 38.8478H369.761V43.1678H350.85V38.8478ZM350.85 27.3656H367.95V31.6288H350.85V27.3656Z" fill="url(#paint2_linear_938_100)"/>
<defs>
<linearGradient id="paint0_linear_938_100" x1="15.3689" y1="29.9947" x2="60.9694" y2="29.9947" gradientUnits="userSpaceOnUse">
<stop stop-color="#FFB80C"/>
<stop offset="0.52" stop-color="#FBBBC3"/>
<stop offset="1" stop-color="#4691F9"/>
</linearGradient>
<linearGradient id="paint1_linear_938_100" x1="0" y1="29.9947" x2="45.5615" y2="29.9947" gradientUnits="userSpaceOnUse">
<stop stop-color="#FFB80C"/>
<stop offset="0.52" stop-color="#FBBBC3"/>
<stop offset="1" stop-color="#4691F9"/>
</linearGradient>
<linearGradient id="paint2_linear_938_100" x1="83.958" y1="15.9972" x2="369.815" y2="15.9972" gradientUnits="userSpaceOnUse">
<stop stop-color="#905E26"/>
<stop offset="0.5" stop-color="#F5EC9B"/>
<stop offset="1" stop-color="#905E26"/>
</linearGradient>
</defs>
</svg>
