<svg width="24" height="24" viewBox="0 0 24 24" fill="none" xmlns="http://www.w3.org/2000/svg">
<path d="M21 10.2068C20.9911 10.4187 20.879 10.6608 20.6616 10.852C19.791 11.6168 18.9199 12.3809 18.0484 13.1442C17.6415 13.5013 17.234 13.8578 16.826 14.2137C16.7677 14.2644 16.7528 14.3093 16.7708 14.3879C17.084 15.7567 17.3947 17.1261 17.7028 18.496C17.7652 18.7713 17.8266 19.0471 17.894 19.3214C17.9923 19.7277 17.8668 20.1292 17.5501 20.3565C17.2017 20.6065 16.8317 20.6228 16.4634 20.4043C15.2903 19.7069 14.1187 19.0068 12.9486 18.3038C12.6754 18.1406 12.3989 17.9812 12.1302 17.812C12.0404 17.7553 11.9751 17.7548 11.8829 17.8103C10.4599 18.6644 9.03387 19.5133 7.61258 20.3673C7.31073 20.5484 7.00243 20.6165 6.6688 20.4796C6.22738 20.2984 5.99675 19.8343 6.10645 19.352C6.41666 17.9869 6.72735 16.6218 7.03852 15.2567C7.104 14.9699 7.16256 14.6809 7.23354 14.3963C7.25409 14.3141 7.23975 14.2656 7.17737 14.2113C6.64267 13.7462 6.10932 13.2796 5.57732 12.8113C4.8319 12.1569 4.08362 11.5071 3.3425 10.848C3.03994 10.5793 2.92522 10.2364 3.04926 9.8442C3.1733 9.45201 3.45053 9.21589 3.86399 9.17335C4.59674 9.09831 5.33068 9.03545 6.06415 8.9683C6.78973 8.90185 7.51531 8.83589 8.24089 8.77041C8.48275 8.74866 8.72461 8.72428 8.96671 8.70588C9.04462 8.70015 9.08621 8.66597 9.11536 8.59499C9.77259 7.05062 10.4309 5.50689 11.0904 3.9638C11.2725 3.5372 11.5978 3.29892 12.0112 3.30968C12.4247 3.32043 12.723 3.52238 12.8869 3.90214C13.3331 4.9353 13.7736 5.97085 14.2159 7.00593C14.4411 7.53171 14.6667 8.05893 14.888 8.5871C14.9219 8.66836 14.9704 8.69991 15.0553 8.7066C15.6384 8.75599 16.2214 8.80777 16.8042 8.86194C17.6528 8.93906 18.5013 9.01681 19.3497 9.0952C19.6193 9.1191 19.8891 9.143 20.158 9.17311C20.647 9.23095 21.0038 9.63891 21 10.2068Z" fill="#4580FF"/>
</svg>
